<?xml version="1.0" encoding="UTF-8"?>
<svg xmlns="http://www.w3.org/2000/svg" viewBox="0 0 64 64">
  <defs>
    <linearGradient id="g" x1="0%" y1="0%" x2="100%" y2="100%">
      <stop offset="0%" stop-color="#6366f1"/>
      <stop offset="100%" stop-color="#8b5cf6"/>
    </linearGradient>
    <filter id="glow" x="-50%" y="-50%" width="200%" height="200%">
      <feGaussianBlur in="SourceGraphic" stdDeviation="2" result="blur"/>
      <feMerge>
        <feMergeNode in="blur"/>
        <feMergeNode in="SourceGraphic"/>
      </feMerge>
    </filter>
  </defs>
  <!-- Badge -->
  <circle cx="32" cy="32" r="24" fill="url(#g)"/>
  <!-- Monogram S -->
  <path d="M43 26.5c0-4-3.2-6.5-7.7-6.5-3 0-6 .9-8 2.7l2.9 2.9c1.2-1.1 3-1.9 5.1-1.9 2.3 0 3.6 0.9 3.6 2 0 1.4-1.1 2-3.9 2.4-4.9 0.7-8.4 2.1-8.4 6.6 0 4 3.3 6.7 8 6.7 3 0 6-1 8-2.8l-2.9-2.9c-1.2 1.2-3.1 2-5.2 2-2.1 0-3.7-0.9-3.7-2.1 0-1.3 1.1-2 4-2.4 4.8-0.6 8.2-2 8.2-6.7z" fill="#ffffff" filter="url(#glow)"/>
</svg>
